# xmcd
#
# Track frame offsets:
#	150
#	16820
#	36962
#	55387
#
# Disc length: 1125 seconds
#
# Revision: 0
# Processed by: cddbd v1.5.1PL0 Copyright (c) Steve Scherf et al.
# Submitted via: dBpowerAMP V4.0
#
DISCID=2b046304
DTITLE=Sadie - MAXI - Just Can't Get Enough
DYEAR=1996
DGENRE=
TTITLE0=Just Can't Get Enough (Sunset 67 Edit)
TTITLE1=Just Can't Get Enough (Sunset 67 (Full Lengh))
TTITLE2=Just Can't Get Enough (sunstrumental)
TTITLE3=Dedicated To You (Stone and Nick's Dedication Dub)
EXTD=
EXTT0=
EXTT1=
EXTT2=
EXTT3=
PLAYORDER=
